<?xml version="1.0" encoding="UTF-8"?>
<svg id="Calque_2" data-name="Calque 2" xmlns="http://www.w3.org/2000/svg" viewBox="0 0 40 40">
  <defs>
    <style>
      .cls-1 {
        fill: none;
        stroke: #fff;
        stroke-width: 2px;
      }

      .cls-2 {
        fill: #fff;
        stroke-width: 0px;
      }
    </style>
  </defs>
  <g id="Calque_1-2" data-name="Calque 1">
    <circle class="cls-1" cx="20" cy="20" r="19"/>
    <path class="cls-2" d="m17.58,24.86v-.13c.01-1.36.16-2.44.43-3.24.27-.8.65-1.45,1.15-1.95.5-.5,1.09-.96,1.79-1.37.42-.26.8-.56,1.13-.91.33-.36.6-.76.79-1.23.2-.46.3-.97.3-1.53,0-.7-.16-1.3-.49-1.81-.33-.51-.76-.91-1.31-1.18-.55-.28-1.15-.42-1.82-.42-.58,0-1.14.12-1.68.36-.54.24-.99.62-1.35,1.14-.36.52-.57,1.2-.63,2.03h-2.68c.06-1.21.37-2.24.94-3.1.58-.86,1.33-1.52,2.27-1.97.94-.45,1.99-.68,3.14-.68,1.25,0,2.34.25,3.26.75.93.5,1.65,1.18,2.15,2.05.51.87.77,1.85.77,2.96,0,.78-.12,1.49-.36,2.12-.23.63-.58,1.2-1.02,1.69-.44.5-.97.94-1.6,1.32-.62.39-1.13.8-1.5,1.24-.38.43-.65.93-.82,1.52-.17.59-.26,1.32-.28,2.21v.13h-2.56Zm1.36,6.31c-.53,0-.98-.19-1.35-.56-.38-.38-.56-.83-.56-1.35s.19-.98.56-1.35c.38-.38.83-.56,1.35-.56s.98.19,1.35.56c.38.38.56.83.56,1.35,0,.35-.09.67-.27.96-.17.29-.4.53-.69.7-.28.17-.6.26-.96.26Z"/>
  </g>
</svg>